<?xml version="1.0" encoding="UTF-8" standalone="no"?>
<svg
   xmlns:dc="http://purl.org/dc/elements/1.1/"
   xmlns:cc="http://creativecommons.org/ns#"
   xmlns:rdf="http://www.w3.org/1999/02/22-rdf-syntax-ns#"
   xmlns:svg="http://www.w3.org/2000/svg"
   xmlns="http://www.w3.org/2000/svg"
   xmlns:sodipodi="http://sodipodi.sourceforge.net/DTD/sodipodi-0.dtd"
   xmlns:inkscape="http://www.inkscape.org/namespaces/inkscape"
   version="1.1"
   x="0px"
   y="0px"
   viewBox="0 0 1000 1000"
   enable-background="new 0 0 1000 1000"
   xml:space="preserve"
   id="svg8"
   sodipodi:docname="menu-icon.svg"
   inkscape:version="1.0.1 (3bc2e813f5, 2020-09-07)"><defs
   id="defs12" /><sodipodi:namedview
   pagecolor="#ffffff"
   bordercolor="#666666"
   borderopacity="1"
   objecttolerance="10"
   gridtolerance="10"
   guidetolerance="10"
   inkscape:pageopacity="0"
   inkscape:pageshadow="2"
   inkscape:window-width="1920"
   inkscape:window-height="1000"
   id="namedview10"
   showgrid="false"
   inkscape:zoom="0.814"
   inkscape:cx="500"
   inkscape:cy="528.3962"
   inkscape:window-x="-11"
   inkscape:window-y="-11"
   inkscape:window-maximized="1"
   inkscape:current-layer="svg8" />
<metadata
   id="metadata2"> Svg Vector Icons : http://www.onlinewebfonts.com/icon <rdf:RDF><cc:Work
     rdf:about=""><dc:format>image/svg+xml</dc:format><dc:type
       rdf:resource="http://purl.org/dc/dcmitype/StillImage" /></cc:Work></rdf:RDF></metadata>
<g
   id="g6"
   style="fill:none;fill-opacity:1"><path
     d="M500,10C229.4,10,10,229.4,10,500s219.4,490,490,490s490-219.4,490-490S770.6,10,500,10z M761.3,728.7H238.7c-18,0-32.7-14.6-32.7-32.7s14.6-32.7,32.7-32.7h522.7c18,0,32.7,14.6,32.7,32.7S779.4,728.7,761.3,728.7z M761.3,532.7H238.7c-18,0-32.7-14.6-32.7-32.7s14.6-32.7,32.7-32.7h522.7c18,0,32.7,14.6,32.7,32.7S779.4,532.7,761.3,532.7z M761.3,336.7H238.7c-18,0-32.7-14.6-32.7-32.7s14.6-32.7,32.7-32.7h522.7c18,0,32.7,14.6,32.7,32.7S779.4,336.7,761.3,336.7z"
     id="path4"
     style="fill:none;fill-opacity:1" /></g>
<path
   style="fill:#b135ff;fill-opacity:1;stroke-width:1.85726;stroke-linecap:round;paint-order:stroke fill markers"
   d="m 233.11157,531.43492 c -19.86193,-3.37611 -32.36775,-27.04109 -23.52768,-44.52181 3.70219,-7.32087 7.51978,-11.38017 14.16273,-15.05945 l 6.59736,-3.65402 H 500 769.65602 l 6.75676,3.78886 c 19.70763,11.0511 22.71189,36.3781 6.09579,51.38974 -10.57373,9.55273 16.7353,8.68341 -278.82307,8.87573 -145.6081,0.0947 -267.36637,-0.27383 -270.57393,-0.81905 z"
   id="path837"
   inkscape:export-xdpi="325.32001"
   inkscape:export-ydpi="325.32001" /><path
   style="fill:#b135ff;fill-opacity:1;stroke-width:1.85726;stroke-linecap:round;paint-order:stroke fill markers"
   d="m 228.50123,334.24806 c -10.76546,-3.34274 -20.01005,-14.73093 -21.64579,-26.66494 -1.70987,-12.47487 6.47532,-26.8111 18.50622,-32.41334 l 6.21082,-2.89209 268.42752,0.015 c 267.22098,0.0149 268.45237,0.0262 273.95577,2.51222 7.82364,3.53411 14.33973,10.35895 17.20692,18.02219 4.61076,12.32335 2.05845,24.16031 -7.20741,33.42617 -10.83721,10.83721 16.50579,9.89354 -283.867,9.79694 -224.17089,-0.0721 -266.92916,-0.35582 -271.58705,-1.80213 z"
   id="path839"
   inkscape:export-xdpi="325.32001"
   inkscape:export-ydpi="325.32001" /><path
   style="fill:#b135ff;fill-opacity:1;stroke-width:1.85726;stroke-linecap:round;paint-order:stroke fill markers"
   d="m 227.33854,725.90509 c -7.94111,-2.8037 -16.60422,-11.94397 -19.01517,-20.06253 -2.40081,-8.0844 -2.42139,-11.35821 -0.12009,-19.10752 2.35623,-7.9343 8.86267,-15.42625 16.85657,-19.40977 l 6.3808,-3.17969 268.49343,0.012 268.49344,0.012 6.21082,2.8921 c 10.58692,4.92984 18.97345,17.75927 18.97345,29.02493 0,7.49907 -3.81755,16.21958 -9.65651,22.05853 -10.83836,10.83836 16.58626,9.89501 -284.48125,9.78552 -239.0172,-0.0869 -267.23954,-0.29699 -272.13549,-2.02557 z"
   id="path841"
   inkscape:export-xdpi="325.32001"
   inkscape:export-ydpi="325.32001" /></svg>
